# xmcd
#
# Track frame offsets:
#	151
#	13070
#	27281
#	46216
#	67633
#	82588
#	97248
#	110598
#	122483
#	134522
#
# Disc length: 1946
#
# Revision: 2
# Processed by: cddbd v1.5.1PL0 Copyright (c) Steve Scherf et al.
# Submitted via: EasyCDDAExtractor 7.0.6.1
# Normalized: r1:DSETVAR1
#
DISCID=7707980a
DTITLE=Various Artist - Cuba Social Club - Celia Cruz
DYEAR=1900
DGENRE=Blues
TTITLE0=Celia Cruz - La sopa en botella
TTITLE1=Cachao - Trombon Criollo
TTITLE2=Los Van Van - La bomba soy yo
TTITLE3=Orq. Casino de la Playa - Traigo un tumbao
TTITLE4=Celia Cruz - Tu voz
TTITLE5=Sonora Matancera - Nocturnando
TTITLE6=Enrique Jorrín - Ay dile que si
TTITLE7=Trío Matamoros - El paralitico
TTITLE8=Celia Cruz - Yerberito moderno
TTITLE9=Conjunto Carey - Con todos quieres bailar
EXTD=
EXTT0=
EXTT1=
EXTT2=
EXTT3=
EXTT4=
EXTT5=
EXTT6=
EXTT7=
EXTT8=
EXTT9=
PLAYORDER=
